<svg width="127" height="100" viewBox="0 0 127 100" fill="none" xmlns="http://www.w3.org/2000/svg">
<g clip-path="url(#clip0_639_6026)">
<path d="M13.3211 82.236C14.5551 82.9096 15.5181 83.891 16.2154 85.1803C16.91 86.4696 17.2573 88.022 17.2573 89.8402V98.1153C17.2573 98.61 17.0942 99.0178 16.7706 99.344C16.4443 99.6703 16.0365 99.8308 15.5418 99.8308C15.0471 99.8308 14.6393 99.6677 14.313 99.344C13.9868 99.0204 13.8263 98.61 13.8263 98.1153V89.8402C13.8263 88.0246 13.3395 86.6512 12.3633 85.7197C11.3871 84.7883 10.0926 84.3225 8.47704 84.3225C7.53507 84.3225 6.6773 84.5146 5.90373 84.8935C5.13016 85.275 4.52498 85.7908 4.0882 86.4407C3.65142 87.0906 3.43303 87.8194 3.43303 88.6272V98.1153C3.43303 98.61 3.27516 99.0178 2.96205 99.344C2.64894 99.6703 2.23321 99.8308 1.71749 99.8308C1.20178 99.8308 0.814993 99.6677 0.488725 99.344C0.162456 99.0204 0.00195312 98.61 0.00195312 98.1153V75.237C0.00195312 74.7213 0.165087 74.3056 0.488725 73.9925C0.812362 73.6794 1.22283 73.5215 1.71749 73.5215C2.21216 73.5215 2.64894 73.6794 2.96205 73.9925C3.27516 74.3056 3.43303 74.7213 3.43303 75.237V83.4806C4.15135 82.7622 5.00386 82.2071 5.99056 81.815C6.97726 81.423 8.03237 81.2256 9.15326 81.2256C10.7004 81.2256 12.0923 81.5624 13.3237 82.236H13.3211Z" fill="#005229"/>
<path d="M36.349 82.4888C37.7514 83.3071 38.8618 84.428 39.6801 85.8541C40.4984 87.2776 40.9089 88.8642 40.9089 90.614V98.1155C40.9089 98.6102 40.7457 99.018 40.4221 99.3443C40.0958 99.6706 39.688 99.8311 39.1933 99.8311C38.6987 99.8311 38.2908 99.6679 37.9645 99.3443C37.6383 99.0206 37.4778 98.6102 37.4778 98.1155V96.871C36.6937 97.8366 35.7386 98.5865 34.6177 99.1259C33.4968 99.6653 32.2838 99.9337 30.984 99.9337C29.3684 99.9337 27.9055 99.5311 26.5925 98.7233C25.2795 97.9155 24.2481 96.7999 23.4982 95.3764C22.7457 93.953 22.3721 92.3664 22.3721 90.6166C22.3721 88.8669 22.7746 87.2802 23.5824 85.8568C24.3902 84.4333 25.5058 83.3124 26.9293 82.4915C28.3528 81.6732 29.9289 81.2627 31.6549 81.2627C33.381 81.2627 34.9466 81.6732 36.349 82.4915V82.4888ZM34.6992 96.0816C35.607 95.5317 36.32 94.7818 36.8358 93.8267C37.3515 92.8742 37.6093 91.8033 37.6093 90.614C37.6093 89.4247 37.3515 88.3485 36.8358 87.3855C36.32 86.4225 35.607 85.6647 34.6992 85.1148C33.7915 84.5649 32.7758 84.2912 31.6549 84.2912C30.534 84.2912 29.5184 84.5649 28.6106 85.1148C27.7029 85.6647 26.9846 86.4225 26.4583 87.3855C25.9321 88.3511 25.669 89.4273 25.669 90.614C25.669 91.8006 25.9321 92.8742 26.4583 93.8267C26.9846 94.7792 27.7029 95.5317 28.6106 96.0816C29.5184 96.6315 30.534 96.9052 31.6549 96.9052C32.7758 96.9052 33.7915 96.6315 34.6992 96.0816Z" fill="#005229"/>
<path d="M60.6747 82.4702C61.9877 83.278 63.0191 84.3936 63.769 85.8171C64.5189 87.2405 64.8952 88.8272 64.8952 90.5769C64.8952 92.3266 64.4926 93.9133 63.6848 95.3367C62.8771 96.7602 61.7614 97.8837 60.338 98.702C58.9145 99.5203 57.3384 99.9308 55.6123 99.9308C53.8863 99.9308 52.3207 99.523 50.9183 98.702C49.5158 97.8837 48.4055 96.7628 47.5872 95.3367C46.7689 93.9133 46.3584 92.3266 46.3584 90.5769V75.237C46.3584 74.7213 46.5215 74.3056 46.8452 73.9925C47.1688 73.6794 47.5793 73.5215 48.0739 73.5215C48.5686 73.5215 49.0054 73.6794 49.3185 73.9925C49.6316 74.3056 49.7895 74.7213 49.7895 75.237V84.3199C50.5736 83.3569 51.5261 82.6044 52.6496 82.065C53.7705 81.5256 54.9808 81.2572 56.2833 81.2572C57.8988 81.2572 59.3618 81.6598 60.6747 82.4676V82.4702ZM58.6566 96.0787C59.5644 95.5288 60.2827 94.7737 60.8089 93.808C61.3352 92.845 61.5983 91.7662 61.5983 90.5769C61.5983 89.3876 61.3352 88.3167 60.8089 87.3642C60.2827 86.4117 59.5644 85.6592 58.6566 85.1093C57.7488 84.5594 56.7332 84.2857 55.6123 84.2857C54.4914 84.2857 53.4758 84.5594 52.568 85.1093C51.6603 85.6592 50.9472 86.4091 50.4315 87.3642C49.9158 88.3167 49.6579 89.3876 49.6579 90.5769C49.6579 91.7662 49.9158 92.8424 50.4315 93.808C50.9472 94.7737 51.6603 95.5288 52.568 96.0787C53.4758 96.6287 54.4914 96.9023 55.6123 96.9023C56.7332 96.9023 57.7488 96.6287 58.6566 96.0787Z" fill="#005229"/>
<path d="M70.8339 77.7443C70.3971 77.3075 70.1787 76.7865 70.1787 76.1787C70.1787 75.5709 70.3971 75.0526 70.8339 74.6132C71.2707 74.1738 71.7916 73.958 72.3994 73.958C73.0072 73.958 73.5256 74.1764 73.965 74.6132C74.4044 75.05 74.6202 75.5709 74.6202 76.1787C74.6202 76.7865 74.4018 77.3049 73.965 77.7443C73.5282 78.1811 73.0072 78.3995 72.3994 78.3995C71.7916 78.3995 71.2733 78.1811 70.8339 77.7443ZM71.1707 99.3096C70.8444 98.9833 70.6839 98.5755 70.6839 98.0808V83.1093C70.6839 82.5936 70.847 82.1779 71.1707 81.8648C71.4969 81.5516 71.9048 81.3938 72.3994 81.3938C72.8941 81.3938 73.3309 81.5516 73.644 81.8648C73.9571 82.1805 74.115 82.5936 74.115 83.1093V98.0808C74.115 98.5755 73.9571 98.9833 73.644 99.3096C73.3283 99.6359 72.9152 99.7964 72.3994 99.7964C71.8837 99.7964 71.4969 99.6332 71.1707 99.3096Z" fill="#005229"/>
<path d="M89.707 96.9047C89.9859 97.2178 90.128 97.623 90.128 98.115C90.128 98.6071 89.9438 99.0123 89.5728 99.3254C89.2018 99.6385 88.7256 99.7964 88.1441 99.7964H87.5389C86.4391 99.7964 85.4366 99.5096 84.5288 98.9386C83.6211 98.3676 82.908 97.5888 82.3923 96.5995C81.8766 95.6128 81.6187 94.5024 81.6187 93.2684V84.959H80.0716C79.6006 84.959 79.2191 84.8249 78.927 84.5565C78.635 84.2881 78.4902 83.9513 78.4902 83.5461C78.4902 83.0988 78.635 82.7383 78.927 82.4699C79.2191 82.2015 79.6006 82.0674 80.0716 82.0674H81.6187V77.2233C81.6187 76.7313 81.7766 76.3261 82.0897 76.013C82.4028 75.6999 82.808 75.542 83.3001 75.542C83.7921 75.542 84.1973 75.6999 84.5104 76.013C84.8235 76.3261 84.9814 76.7313 84.9814 77.2233V82.0674H87.8415C88.3125 82.0674 88.694 82.2015 88.9861 82.4699C89.2781 82.7383 89.4229 83.0988 89.4229 83.5461C89.4229 83.9487 89.2755 84.2855 88.9861 84.5565C88.694 84.8249 88.3125 84.959 87.8415 84.959H84.9814V93.2684C84.9814 94.1656 85.2287 94.9155 85.7208 95.5233C86.2128 96.1285 86.8206 96.4311 87.5389 96.4311H88.6835C89.0861 96.4311 89.4281 96.5889 89.7097 96.9021L89.707 96.9047Z" fill="#005229"/>
<path d="M107.704 82.4888C109.107 83.3071 110.217 84.428 111.036 85.8541C111.854 87.2776 112.264 88.8642 112.264 90.614V98.1155C112.264 98.6102 112.101 99.018 111.778 99.3443C111.451 99.6706 111.043 99.8311 110.549 99.8311C110.054 99.8311 109.646 99.6679 109.32 99.3443C108.994 99.0206 108.833 98.6102 108.833 98.1155V96.871C108.049 97.8366 107.094 98.5865 105.973 99.1259C104.852 99.6653 103.639 99.9337 102.339 99.9337C100.724 99.9337 99.2609 99.5311 97.948 98.7233C96.635 97.9155 95.6036 96.7999 94.8537 95.3764C94.1012 93.953 93.7275 92.3664 93.7275 90.6166C93.7275 88.8669 94.1301 87.2802 94.9379 85.8568C95.7457 84.4333 96.8613 83.3124 98.2848 82.4915C99.7083 81.6732 101.284 81.2627 103.01 81.2627C104.736 81.2627 106.302 81.6732 107.704 82.4915V82.4888ZM106.055 96.0816C106.962 95.5317 107.676 94.7818 108.191 93.8267C108.707 92.8742 108.965 91.8033 108.965 90.614C108.965 89.4247 108.707 88.3485 108.191 87.3855C107.676 86.4225 106.962 85.6647 106.055 85.1148C105.147 84.5649 104.131 84.2912 103.01 84.2912C101.89 84.2912 100.874 84.5649 99.9661 85.1148C99.0583 85.6647 98.34 86.4225 97.8138 87.3855C97.2875 88.3511 97.0244 89.4273 97.0244 90.614C97.0244 91.8006 97.2875 92.8742 97.8138 93.8267C98.34 94.7792 99.0583 95.5317 99.9661 96.0816C100.874 96.6315 101.89 96.9052 103.01 96.9052C104.131 96.9052 105.147 96.6315 106.055 96.0816Z" fill="#005229"/>
<path d="M126.578 96.9047C126.857 97.2178 126.999 97.623 126.999 98.115C126.999 98.6071 126.815 99.0123 126.444 99.3254C126.073 99.6385 125.597 99.7964 125.015 99.7964H124.41C123.31 99.7964 122.308 99.5096 121.4 98.9386C120.492 98.3676 119.779 97.5888 119.263 96.5995C118.748 95.6128 118.49 94.5024 118.49 93.2684V84.959H116.943C116.472 84.959 116.09 84.8249 115.798 84.5565C115.506 84.2881 115.361 83.9513 115.361 83.5461C115.361 83.0988 115.506 82.7383 115.798 82.4699C116.09 82.2015 116.472 82.0674 116.943 82.0674H118.49V77.2233C118.49 76.7313 118.648 76.3261 118.961 76.013C119.274 75.6999 119.679 75.542 120.171 75.542C120.663 75.542 121.068 75.6999 121.382 76.013C121.695 76.3261 121.852 76.7313 121.852 77.2233V82.0674H124.713C125.184 82.0674 125.565 82.2015 125.857 82.4699C126.149 82.7383 126.294 83.0988 126.294 83.5461C126.294 83.9487 126.147 84.2855 125.857 84.5565C125.565 84.8249 125.184 84.959 124.713 84.959H121.852V93.2684C121.852 94.1656 122.1 94.9155 122.592 95.5233C123.084 96.1285 123.692 96.4311 124.41 96.4311H125.555C125.957 96.4311 126.299 96.5889 126.581 96.9021L126.578 96.9047Z" fill="#005229"/>
<path d="M84.7736 28.8359V45.4835C84.7736 51.3906 79.9401 56.2241 74.0331 56.2241H70.3363C64.4292 56.2241 59.5957 51.3906 59.5957 45.4835V42.9339" stroke="#005229" stroke-width="2.89432" stroke-miterlimit="10"/>
<path d="M40.709 28.8359V45.4835C40.709 51.3906 45.5425 56.2241 51.4495 56.2241H55.1464C61.0534 56.2241 65.8869 51.3906 65.8869 45.4835V42.9339" stroke="#005229" stroke-width="2.89432" stroke-miterlimit="10"/>
<path d="M65.8872 43.3894C65.8872 41.6528 64.4795 40.2451 62.7429 40.2451C61.0063 40.2451 59.5986 41.6528 59.5986 43.3894" stroke="#005229" stroke-width="2.89432" stroke-miterlimit="10"/>
<path d="M84.7736 28.8364V12.1888C84.7736 6.28175 79.9401 1.44824 74.0331 1.44824H70.3363C64.4292 1.44824 59.5957 6.28175 59.5957 12.1888V14.7384" stroke="#005229" stroke-width="2.89432" stroke-miterlimit="10"/>
<path d="M40.709 28.8364V12.1888C40.709 6.28175 45.5425 1.44824 51.4495 1.44824H55.1464C61.0534 1.44824 65.8869 6.28175 65.8869 12.1888V14.7384" stroke="#005229" stroke-width="2.89432" stroke-miterlimit="10"/>
<path d="M65.8872 14.2803C65.8872 16.0169 64.4795 17.4246 62.7429 17.4246C61.0063 17.4246 59.5986 16.0169 59.5986 14.2803" stroke="#005229" stroke-width="2.89432" stroke-miterlimit="10"/>
</g>
<defs>
<clipPath id="clip0_639_6026">
<rect width="127" height="99.9302" fill="white"/>
</clipPath>
</defs>
</svg>
