<svg width="128" height="39" viewBox="0 0 128 39" fill="none" xmlns="http://www.w3.org/2000/svg">
<path d="M30.7639 19.5V30.745C30.7639 34.7351 27.499 38 23.5089 38H21.0118C17.0218 38 13.7568 34.7351 13.7568 30.745V29.0228" stroke="#005229" stroke-width="1.95504" stroke-miterlimit="10"/>
<path d="M1 19.5V30.745C1 34.7351 4.26491 38 8.25497 38H10.7521C14.7421 38 18.0071 34.7351 18.0071 30.745V29.0228" stroke="#005229" stroke-width="1.95504" stroke-miterlimit="10"/>
<path d="M18.0075 29.3299C18.0075 28.1569 17.0567 27.2061 15.8837 27.2061C14.7106 27.2061 13.7598 28.1569 13.7598 29.3299" stroke="#005229" stroke-width="1.95504" stroke-miterlimit="10"/>
<path d="M30.7639 19.5V8.25497C30.7639 4.26491 27.499 1 23.5089 1H21.0118C17.0218 1 13.7568 4.26491 13.7568 8.25497V9.97718" stroke="#005229" stroke-width="1.95504" stroke-miterlimit="10"/>
<path d="M1 19.5V8.25497C1 4.26491 4.26491 1 8.25497 1H10.7521C14.7421 1 18.0071 4.26491 18.0071 8.25497V9.97718" stroke="#005229" stroke-width="1.95504" stroke-miterlimit="10"/>
<path d="M18.0075 9.66699C18.0075 10.84 17.0567 11.7909 15.8837 11.7909C14.7106 11.7909 13.7598 10.84 13.7598 9.66699" stroke="#005229" stroke-width="1.95504" stroke-miterlimit="10"/>
<path d="M52.7604 16.5349C53.594 16.9899 54.2445 17.6528 54.7154 18.5237C55.1847 19.3946 55.4193 20.4432 55.4193 21.6713V27.2609C55.4193 27.5951 55.3091 27.8705 55.0905 28.0909C54.8701 28.3113 54.5946 28.4197 54.2605 28.4197C53.9263 28.4197 53.6508 28.3095 53.4305 28.0909C53.2101 27.8723 53.1017 27.5951 53.1017 27.2609V21.6713C53.1017 20.445 52.7728 19.5172 52.1135 18.888C51.4541 18.2589 50.5796 17.9443 49.4884 17.9443C48.8521 17.9443 48.2727 18.074 47.7502 18.33C47.2276 18.5877 46.8189 18.936 46.5238 19.375C46.2288 19.814 46.0813 20.3063 46.0813 20.852V27.2609C46.0813 27.5951 45.9746 27.8705 45.7631 28.0909C45.5516 28.3113 45.2708 28.4197 44.9225 28.4197C44.5741 28.4197 44.3129 28.3095 44.0925 28.0909C43.8721 27.8723 43.7637 27.5951 43.7637 27.2609V11.8072C43.7637 11.4589 43.8739 11.1781 44.0925 10.9666C44.3111 10.7551 44.5883 10.6484 44.9225 10.6484C45.2566 10.6484 45.5516 10.7551 45.7631 10.9666C45.9746 11.1781 46.0813 11.4589 46.0813 11.8072V17.3755C46.5665 16.8903 47.1423 16.5153 47.8088 16.2505C48.4753 15.9857 49.188 15.8524 49.9452 15.8524C50.9902 15.8524 51.9304 16.0799 52.7622 16.5349H52.7604Z" fill="#005229"/>
<path d="M67.4997 16.6368C68.447 17.1896 69.197 17.9467 69.7497 18.91C70.3025 19.8715 70.5797 20.9432 70.5797 22.1251V27.1923C70.5797 27.5264 70.4695 27.8019 70.2509 28.0223C70.0305 28.2426 69.7551 28.3511 69.4209 28.3511C69.0868 28.3511 68.8113 28.2409 68.5909 28.0223C68.3705 27.8036 68.2621 27.5264 68.2621 27.1923V26.3516C67.7325 27.0039 67.0873 27.5104 66.3302 27.8747C65.5731 28.2391 64.7537 28.4204 63.8757 28.4204C62.7845 28.4204 61.7963 28.1484 60.9094 27.6028C60.0225 27.0572 59.3258 26.3036 58.8193 25.3421C58.311 24.3806 58.0586 23.3088 58.0586 22.1269C58.0586 20.945 58.3305 19.8733 58.8762 18.9118C59.4218 17.9502 60.1754 17.1931 61.1369 16.6386C62.0984 16.0859 63.163 15.8086 64.3289 15.8086C65.4949 15.8086 66.5523 16.0859 67.4997 16.6386V16.6368ZM66.3853 25.8184C66.9985 25.4469 67.4801 24.9404 67.8285 24.2952C68.1768 23.6519 68.351 22.9285 68.351 22.1251C68.351 21.3218 68.1768 20.5949 67.8285 19.9444C67.4801 19.2939 66.9985 18.782 66.3853 18.4106C65.7721 18.0391 65.0861 17.8543 64.3289 17.8543C63.5718 17.8543 62.8858 18.0391 62.2726 18.4106C61.6594 18.782 61.1742 19.2939 60.8188 19.9444C60.4633 20.5967 60.2856 21.3236 60.2856 22.1251C60.2856 22.9267 60.4633 23.6519 60.8188 24.2952C61.1742 24.9386 61.6594 25.4469 62.2726 25.8184C62.8858 26.1899 63.5718 26.3747 64.3289 26.3747C65.0861 26.3747 65.7721 26.1899 66.3853 25.8184Z" fill="#005229"/>
<path d="M82.8901 16.6257C83.7769 17.1713 84.4736 17.9249 84.9802 18.8864C85.4867 19.8479 85.7409 20.9197 85.7409 22.1016C85.7409 23.2835 85.4689 24.3552 84.9233 25.3167C84.3777 26.2782 83.6241 27.0371 82.6626 27.5899C81.701 28.1426 80.6364 28.4199 79.4705 28.4199C78.3046 28.4199 77.2471 28.1444 76.2998 27.5899C75.3525 27.0371 74.6025 26.28 74.0497 25.3167C73.497 24.3552 73.2197 23.2835 73.2197 22.1016V11.7399C73.2197 11.3915 73.3299 11.1107 73.5485 10.8992C73.7671 10.6877 74.0444 10.5811 74.3785 10.5811C74.7127 10.5811 75.0077 10.6877 75.2192 10.8992C75.4307 11.1107 75.5373 11.3915 75.5373 11.7399V17.8751C76.067 17.2246 76.7104 16.7163 77.4693 16.352C78.2264 15.9876 79.044 15.8063 79.9237 15.8063C81.015 15.8063 82.0032 16.0783 82.8901 16.6239V16.6257ZM81.5269 25.8179C82.14 25.4465 82.6252 24.9364 82.9807 24.2841C83.3362 23.6336 83.5139 22.9049 83.5139 22.1016C83.5139 21.2982 83.3362 20.5749 82.9807 19.9315C82.6252 19.2881 82.14 18.7798 81.5269 18.4083C80.9137 18.0369 80.2277 17.852 79.4705 17.852C78.7134 17.852 78.0273 18.0369 77.4142 18.4083C76.801 18.7798 76.3194 19.2863 75.971 19.9315C75.6226 20.5749 75.4485 21.2982 75.4485 22.1016C75.4485 22.9049 75.6226 23.6318 75.971 24.2841C76.3194 24.9364 76.801 25.4465 77.4142 25.8179C78.0273 26.1894 78.7134 26.3742 79.4705 26.3742C80.2277 26.3742 80.9137 26.1894 81.5269 25.8179Z" fill="#005229"/>
<path d="M88.8224 13.5243C88.5274 13.2293 88.3799 12.8774 88.3799 12.4668C88.3799 12.0563 88.5274 11.7062 88.8224 11.4094C89.1175 11.1125 89.4694 10.9668 89.8799 10.9668C90.2905 10.9668 90.6406 11.1143 90.9374 11.4094C91.2342 11.7044 91.38 12.0563 91.38 12.4668C91.38 12.8774 91.2325 13.2275 90.9374 13.5243C90.6424 13.8194 90.2905 13.9669 89.8799 13.9669C89.4694 13.9669 89.1192 13.8194 88.8224 13.5243ZM89.0499 28.0912C88.8295 27.8708 88.7211 27.5953 88.7211 27.2612V17.1483C88.7211 16.7999 88.8313 16.5191 89.0499 16.3076C89.2703 16.0961 89.5458 15.9895 89.8799 15.9895C90.2141 15.9895 90.5091 16.0961 90.7206 16.3076C90.9321 16.5209 91.0387 16.7999 91.0387 17.1483V27.2612C91.0387 27.5953 90.9321 27.8708 90.7206 28.0912C90.5073 28.3116 90.2283 28.42 89.8799 28.42C89.5316 28.42 89.2703 28.3098 89.0499 28.0912Z" fill="#005229"/>
<path d="M101.596 26.4671C101.785 26.6786 101.881 26.9523 101.881 27.2846C101.881 27.617 101.756 27.8907 101.506 28.1022C101.255 28.3137 100.933 28.4203 100.54 28.4203H100.132C99.3888 28.4203 98.7116 28.2266 98.0985 27.8409C97.4853 27.4553 97.0036 26.9292 96.6553 26.2609C96.3069 25.5944 96.1328 24.8444 96.1328 24.0108V18.3981H95.0877C94.7696 18.3981 94.5118 18.3074 94.3146 18.1262C94.1173 17.9449 94.0195 17.7174 94.0195 17.4437C94.0195 17.1415 94.1173 16.898 94.3146 16.7168C94.5118 16.5355 94.7696 16.4448 95.0877 16.4448H96.1328V13.1728C96.1328 12.8404 96.2394 12.5667 96.4509 12.3552C96.6624 12.1437 96.9361 12.0371 97.2685 12.0371C97.6008 12.0371 97.8745 12.1437 98.086 12.3552C98.2975 12.5667 98.4042 12.8404 98.4042 13.1728V16.4448H100.336C100.654 16.4448 100.912 16.5355 101.109 16.7168C101.306 16.898 101.404 17.1415 101.404 17.4437C101.404 17.7156 101.305 17.9431 101.109 18.1262C100.912 18.3074 100.654 18.3981 100.336 18.3981H98.4042V24.0108C98.4042 24.6169 98.5712 25.1234 98.9036 25.534C99.2359 25.9428 99.6465 26.1472 100.132 26.1472H100.905C101.177 26.1472 101.408 26.2538 101.598 26.4653L101.596 26.4671Z" fill="#005229"/>
<path d="M113.962 16.6368C114.909 17.1896 115.659 17.9467 116.212 18.91C116.764 19.8715 117.042 20.9432 117.042 22.1251V27.1923C117.042 27.5264 116.931 27.8019 116.713 28.0223C116.492 28.2426 116.217 28.3511 115.883 28.3511C115.549 28.3511 115.273 28.2409 115.053 28.0223C114.832 27.8036 114.724 27.5264 114.724 27.1923V26.3516C114.194 27.0039 113.549 27.5104 112.792 27.8747C112.035 28.2391 111.216 28.4204 110.338 28.4204C109.246 28.4204 108.258 28.1484 107.371 27.6028C106.484 27.0572 105.788 26.3036 105.281 25.3421C104.773 24.3806 104.521 23.3088 104.521 22.1269C104.521 20.945 104.792 19.8733 105.338 18.9118C105.884 17.9502 106.637 17.1931 107.599 16.6386C108.56 16.0859 109.625 15.8086 110.791 15.8086C111.957 15.8086 113.014 16.0859 113.962 16.6386V16.6368ZM112.847 25.8184C113.46 25.4469 113.942 24.9404 114.29 24.2952C114.639 23.6519 114.813 22.9285 114.813 22.1251C114.813 21.3218 114.639 20.5949 114.29 19.9444C113.942 19.2939 113.46 18.782 112.847 18.4106C112.234 18.0391 111.548 17.8543 110.791 17.8543C110.034 17.8543 109.348 18.0391 108.735 18.4106C108.121 18.782 107.636 19.2939 107.281 19.9444C106.925 20.5967 106.747 21.3236 106.747 22.1251C106.747 22.9267 106.925 23.6519 107.281 24.2952C107.636 24.9386 108.121 25.4469 108.735 25.8184C109.348 26.1899 110.034 26.3747 110.791 26.3747C111.548 26.3747 112.234 26.1899 112.847 25.8184Z" fill="#005229"/>
<path d="M127.257 26.4671C127.446 26.6786 127.542 26.9523 127.542 27.2846C127.542 27.617 127.417 27.8907 127.167 28.1022C126.916 28.3137 126.594 28.4203 126.202 28.4203H125.793C125.05 28.4203 124.373 28.2266 123.76 27.8409C123.146 27.4553 122.665 26.9292 122.316 26.2609C121.968 25.5944 121.794 24.8444 121.794 24.0108V18.3981H120.749C120.431 18.3981 120.173 18.3074 119.976 18.1262C119.778 17.9449 119.681 17.7174 119.681 17.4437C119.681 17.1415 119.778 16.898 119.976 16.7168C120.173 16.5355 120.431 16.4448 120.749 16.4448H121.794V13.1728C121.794 12.8404 121.901 12.5667 122.112 12.3552C122.324 12.1437 122.597 12.0371 122.93 12.0371C123.262 12.0371 123.536 12.1437 123.747 12.3552C123.959 12.5667 124.065 12.8404 124.065 13.1728V16.4448H125.997C126.315 16.4448 126.573 16.5355 126.77 16.7168C126.968 16.898 127.065 17.1415 127.065 17.4437C127.065 17.7156 126.966 17.9431 126.77 18.1262C126.573 18.3074 126.315 18.3981 125.997 18.3981H124.065V24.0108C124.065 24.6169 124.232 25.1234 124.565 25.534C124.897 25.9428 125.308 26.1472 125.793 26.1472H126.566C126.838 26.1472 127.069 26.2538 127.259 26.4653L127.257 26.4671Z" fill="#005229"/>
</svg>
